<svg width="160" height="54" viewBox="0 0 160 54" fill="none" xmlns="http://www.w3.org/2000/svg">
<path fill-rule="evenodd" clip-rule="evenodd" d="M28.5694 12.9447C26.4409 12.063 24.1381 11.6828 21.8392 11.8335C19.5402 11.9842 17.3068 12.6617 15.3116 13.8136L13.2985 14.9759L10.974 10.9497L12.9871 9.78747C15.5998 8.27901 18.5246 7.39176 21.5351 7.19446C24.5456 6.99713 27.5611 7.495 30.3485 8.64953C33.1357 9.80409 35.6201 11.5843 37.6094 13.8526C39.5984 16.1209 41.0393 18.8164 41.8203 21.7305C42.601 24.6447 42.7011 27.6994 42.1125 30.6584C41.5238 33.6174 40.2625 36.4014 38.4258 38.7949C36.5891 41.1884 34.2267 43.1274 31.5208 44.4617C28.815 45.796 25.3249 46.4901 22.8215 46.4901C20.3181 46.4901 18.8563 46.1146 16.9367 45.3196C15.071 44.5468 13.3758 43.4142 11.9479 41.9863C10.5199 40.5583 9.38727 38.8629 8.61446 36.9972C7.84169 35.1316 7.44391 33.132 7.44391 31.1126C7.44391 29.0932 7.84169 27.0936 8.61446 25.2279C9.38727 23.3622 10.5199 21.667 11.9479 20.2391C13.3758 18.8112 15.071 17.6784 16.9367 16.9057C18.8024 16.1329 20.802 15.7351 22.8214 15.7351C24.8408 15.7351 26.8404 16.1329 28.7061 16.9057C30.5718 17.6784 32.267 18.8112 33.6949 20.2391C35.1228 21.667 36.2554 23.3622 37.0283 25.2279C37.3608 26.0304 37.6237 26.8577 37.8157 27.7007C37.9094 26.1004 37.7467 24.4908 37.3297 22.9338C36.7332 20.7084 35.6331 18.65 34.114 16.9179C32.595 15.1858 30.6978 13.8263 28.5694 12.9447ZM13.5368 36.4879C13.8004 31.4901 17.9365 27.5186 23.0002 27.5186C27.8681 27.5186 31.8788 31.189 32.4159 35.9132C32.5297 35.6857 32.6356 35.4539 32.7332 35.2182C33.2724 33.9166 33.5499 32.5215 33.5499 31.1126C33.5499 29.7037 33.2724 28.3086 32.7332 27.007C32.1941 25.7053 31.4038 24.5227 30.4076 23.5264C29.4114 22.5302 28.2287 21.74 26.927 21.2008C25.6254 20.6616 24.2303 20.3841 22.8214 20.3841C21.4125 20.3841 20.0174 20.6616 18.7158 21.2008C17.4142 21.74 16.2315 22.5302 15.2352 23.5264C14.239 24.5227 13.4487 25.7053 12.9096 27.007C12.3704 28.3086 12.0929 29.7037 12.0929 31.1126C12.0929 32.5215 12.3704 33.9166 12.9096 35.2182C13.0908 35.6558 13.3004 36.0799 13.5368 36.4879ZM27.828 36.9954C27.828 39.6618 25.6665 41.8232 23.0002 41.8232C20.3339 41.8232 18.1724 39.6618 18.1724 36.9954C18.1724 34.3291 20.3339 32.1676 23.0002 32.1676C25.6665 32.1676 27.828 34.3291 27.828 36.9954Z" fill="#7C3AED"/>
</svg>
